<svg width="120px" height="14px" viewBox="0 0 120 14" version="1.1" xmlns="http://www.w3.org/2000/svg" xmlns:xlink="http://www.w3.org/1999/xlink">
  <g id="Symbols" stroke="none" stroke-width="1" fill="none" fill-rule="evenodd">
    <g id="Main-Nav/Product-Signed-in" transform="translate(-16.000000, -17.000000)">
      <g id="Main-Nav">
        <g id="Logo" transform="translate(16.000000, 17.000000)">
          <rect id="Rectangle" fill="#1973BA" x="3" y="0" width="14" height="4"></rect>
          <rect id="Rectangle" fill="#F58A1F" x="0" y="5" width="14" height="4"></rect>
          <rect id="Rectangle" fill="#CD2126" x="5" y="10" width="12" height="4"></rect>
          <path d="M117.823235,4.35643564 C117.220675,4.35643564 116.706762,4.14394052 116.281481,3.7189439 C115.856201,3.29394727 115.643564,2.78037704 115.643564,2.17821782 C115.643564,1.5760586 115.856201,1.06248838 116.281481,0.637491746 C116.706762,0.212495125 117.220675,0 117.823235,0 C118.423859,0 118.936803,0.212495125 119.362083,0.637491746 C119.787363,1.06248838 120,1.5760586 120,2.17821782 C120,2.78037704 119.787363,3.29394727 119.362083,3.7189439 C118.936803,4.14394052 118.423859,4.35643564 117.823235,4.35643564 Z M117.823235,0.255577558 C117.292362,0.255577558 116.838994,0.443386461 116.463121,0.819009901 C116.087247,1.19463334 115.899312,1.64769812 115.899312,2.17821782 C115.899312,2.70873752 116.087247,3.16131826 116.463121,3.53597359 C116.838994,3.91062893 117.292362,4.0979538 117.823235,4.0979538 C118.354109,4.0979538 118.806991,3.91062893 119.181897,3.53597359 C119.556802,3.16131826 119.744252,2.70873752 119.744252,2.17821782 C119.744252,1.64769812 119.556802,1.19463334 119.181897,0.819009901 C118.806991,0.443386461 118.354109,0.255577558 117.823235,0.255577558 Z M118.881103,3.54033004 L118.410294,3.54033004 L118.108046,2.87524752 C117.954983,2.54222055 117.790298,2.37570957 117.613987,2.37570957 L117.358239,2.37570957 L117.358239,3.54033004 L116.971711,3.54033004 L116.971711,0.769636964 L117.75058,0.769636964 C118.074142,0.769636964 118.32359,0.837403061 118.498933,0.972937293 C118.674277,1.10847152 118.761947,1.29240808 118.761947,1.52475248 C118.761947,1.7145004 118.700433,1.87617095 118.577402,2.00976897 C118.454371,2.143367 118.282421,2.23339911 118.061546,2.27986798 L118.061546,2.29148515 C118.214609,2.3244006 118.366699,2.49478394 118.517824,2.80264026 L118.881103,3.54033004 Z M117.358239,1.10072608 L117.358239,2.04752475 L117.77383,2.04752475 C118.155516,2.04752475 118.346357,1.88875846 118.346357,1.57122113 C118.346357,1.40083523 118.295013,1.27982434 118.192326,1.20818481 C118.089639,1.1365453 117.926892,1.10072608 117.70408,1.10072608 L117.358239,1.10072608 Z" id="Shape" fill="#000000" fill-rule="nonzero"></path>
          <path d="M19.009901,0.792079208 L22.0029589,0.792079208 C24.5749403,0.792079208 26.9306931,1.53608424 26.9306931,4.38619585 C26.9306931,7.15618383 24.9163537,8.16345218 22.3785137,8.16345218 L21.3770343,8.16345218 L21.3770343,12.6732673 L19.009901,12.6732673 L19.009901,0.792079208 Z M21.3884147,6.28627025 L22.2191874,6.28627025 C23.4027541,6.28627025 24.4725162,5.89709838 24.4725162,4.51210439 C24.4725162,3.1271104 23.4368954,2.65781491 22.2191874,2.65781491 L21.3884147,2.65781491 L21.3884147,6.28627025 Z" id="Shape" fill="#000000" fill-rule="nonzero"></path>
          <path d="M28.5148515,3.77348959 L30.5354438,3.77348959 L30.5354438,5.79511012 L30.5696911,5.79511012 C30.6724331,4.970196 31.6085267,3.56435644 32.967004,3.56435644 C33.1839038,3.56435644 33.423635,3.56435644 33.6633663,3.63406749 L33.6633663,5.96938776 C33.4578824,5.85320267 33.0469144,5.78349161 32.6473623,5.78349161 C30.7980066,5.78349161 30.7980066,8.13043039 30.7980066,9.40846636 L30.7980066,12.6732673 L28.5262673,12.6732673 L28.5262673,3.77348959 L28.5148515,3.77348959 Z" id="Path" fill="#000000"></path>
          <path d="M38.805948,3.96039604 C41.4996106,3.96039604 43.5643564,5.70030037 43.5643564,8.57739707 C43.5643564,11.0792203 41.8200022,13.0693069 38.805948,13.0693069 C35.8037602,13.0693069 34.0594059,11.0792203 34.0594059,8.57739707 C34.0594059,5.71167229 36.1241517,3.96039604 38.805948,3.96039604 M38.805948,11.3180307 C40.6215004,11.3180307 41.0961546,9.76007713 41.0961546,8.3044709 C41.0961546,6.97395582 40.3604405,5.72304421 38.805948,5.72304421 C37.2751882,5.72304421 36.5276078,7.00807159 36.5276078,8.3044709 C36.5276078,9.74870521 37.002262,11.3180307 38.805948,11.3180307" id="Shape" fill="#000000" fill-rule="nonzero"></path>
          <path d="M51.2291974,11.869653 L51.1944386,11.869653 C50.510849,12.7232529 49.5607752,13.0693069 48.4716663,13.0693069 C45.748894,13.0693069 44.7524752,10.8430261 44.7524752,8.42064789 C44.7524752,5.9867346 45.748894,3.82966452 48.4716663,3.82966452 C49.6302928,3.82966452 50.4297451,4.22185908 51.124921,5.06392387 L51.1596798,5.06392387 L51.1596798,0 L53.4653465,0 L53.4653465,12.8616745 L51.2291974,12.8616745 L51.2291974,11.869653 Z M49.1089109,11.2813611 C50.6382979,11.2813611 51.1365073,9.66644237 51.1365073,8.42064789 C51.1365073,7.18638854 50.5456078,5.60607517 49.0741521,5.60607517 C47.5795239,5.60607517 47.1624184,7.23252908 47.1624184,8.42064789 C47.1624184,9.63183697 47.5911102,11.2813611 49.1089109,11.2813611 Z" id="Shape" fill="#000000" fill-rule="nonzero"></path>
          <path d="M63.7623762,12.8601738 L61.6328888,12.8601738 L61.6328888,11.6518489 L61.5990874,11.6518489 C60.9117925,12.5116185 59.9428193,13.0693069 58.7710378,13.0693069 C56.7316874,13.0693069 55.8415842,11.5821378 55.8415842,9.58375429 L55.8415842,3.96039604 L58.0837429,3.96039604 L58.0837429,8.71236613 C58.0837429,9.80450596 58.0950101,11.2684381 59.5372027,11.2684381 C61.1596693,11.2684381 61.5089503,9.4559507 61.5089503,8.31733684 L61.5089503,3.96039604 L63.7511091,3.96039604 L63.7511091,12.8601738 L63.7623762,12.8601738 Z" id="Path" fill="#000000"></path>
          <path d="M72.1018584,6.04145808 C71.6817956,5.8595073 71.2383959,5.72304421 70.5266229,5.72304421 C69.0914083,5.72304421 68.1696038,6.83749274 68.1696038,8.47504975 C68.1696038,10.078491 68.9513873,11.3180307 70.5849649,11.3180307 C71.2500643,11.3180307 71.9735058,11.0792203 72.3702318,10.9086414 L72.4752475,12.7850088 C71.7984797,12.9897035 71.1100434,13.0693069 70.1532337,13.0693069 C67.2244625,13.0693069 65.7425743,11.124708 65.7425743,8.47504975 C65.7425743,5.96185461 67.2711361,3.96039604 70.0598864,3.96039604 C70.9933593,3.96039604 71.6701272,4.06274335 72.3118898,4.24469413 L72.1018584,6.04145808 Z" id="Path" fill="#000000"></path>
          <path d="M74.6176964,5.74910238 L72.8712871,5.74910238 L72.8712871,4.07394586 L74.6058963,4.07394586 L74.6058963,2.31847361 L76.9541088,1.58415842 L76.9541088,4.07394586 L79.0427199,4.07394586 L79.0427199,5.74910238 L76.9541088,5.74910238 L76.9541088,9.8452043 C76.9541088,10.5909932 77.1665099,11.2908873 78.0633147,11.2908873 C78.488117,11.2908873 78.8893191,11.2105716 79.1371204,11.0499402 L79.2079208,12.8627808 C78.7123182,13.0004649 78.1695153,13.0693069 77.4733116,13.0693069 C75.6325018,13.0693069 74.6176964,11.9563605 74.6176964,10.2238356 L74.6176964,5.74910238 Z" id="Path" fill="#000000"></path>
          <path d="M80.3960396,0.792079208 L83.3890975,0.792079208 C85.9610789,0.792079208 88.3168317,1.53608424 88.3168317,4.38619585 C88.3168317,7.15618383 86.3024923,8.16345218 83.7646523,8.16345218 L82.7631729,8.16345218 L82.7631729,12.6732673 L80.3960396,12.6732673 L80.3960396,0.792079208 Z M82.7631729,6.28627025 L83.5939456,6.28627025 C84.7775122,6.28627025 85.8472744,5.89709838 85.8472744,4.51210439 C85.8472744,3.1271104 84.8116536,2.65781491 83.5939456,2.65781491 L82.7631729,2.65781491 L82.7631729,6.28627025 Z" id="Shape" fill="#000000" fill-rule="nonzero"></path>
          <rect id="Rectangle" fill="#000000" x="89.9009901" y="0" width="2.37623762" height="12.6732673"></rect>
          <path d="M95.2088378,4.61914521 C96.0914731,4.21026641 97.2836039,3.96039604 98.2579416,3.96039604 C100.928773,3.96039604 102.040664,5.06209723 102.040664,7.62894743 L102.040664,8.74200637 C102.040664,9.61655268 102.052127,10.2753018 102.075053,10.9226933 C102.097978,11.5814424 102.120904,12.1834029 102.178218,12.8648675 L100.172229,12.8648675 C100.091989,12.4105578 100.091989,11.8313128 100.069063,11.5700847 L100.034675,11.5700847 C99.5073863,12.535493 98.3611067,13.0693069 97.3294551,13.0693069 C95.7819776,13.0693069 94.2574257,12.1379719 94.2574257,10.491099 C94.2574257,9.19631614 94.8878795,8.43534728 95.759052,8.01511074 C96.6302245,7.5948742 97.7535785,7.50401225 98.7049906,7.50401225 L99.9658982,7.50401225 C99.9658982,6.1070097 99.3354444,5.62998444 97.9942973,5.62998444 C97.0199596,5.62998444 96.0570847,6.00479001 95.2890774,6.57267722 L95.2088378,4.61914521 Z M97.8911321,11.4110763 C98.5903627,11.4110763 99.1405769,11.1044172 99.4959235,10.6387497 C99.8741958,10.1503667 99.977361,9.52569072 99.977361,8.84422607 L98.9915605,8.84422607 C97.9713717,8.84422607 96.4582826,9.01459223 96.4582826,10.3434483 C96.435357,11.0930594 97.0658108,11.4110763 97.8911321,11.4110763 Z" id="Shape" fill="#000000" fill-rule="nonzero"></path>
          <path d="M104.554455,3.77348959 L106.683943,3.77348959 L106.683943,4.98181451 L106.717744,4.98181451 C107.416306,3.95938573 108.374012,3.56435644 109.545794,3.56435644 C111.585144,3.56435644 112.475248,5.05152556 112.475248,7.04990907 L112.475248,12.6616488 L110.233089,12.6616488 L110.233089,7.92129723 C110.233089,6.82915741 110.221822,5.3652253 108.779629,5.3652253 C107.157162,5.3652253 106.807881,7.17771267 106.807881,8.31632653 L106.807881,12.6732673 L104.565723,12.6732673 L104.565723,3.77348959 L104.554455,3.77348959 Z" id="Path" fill="#000000"></path>
        </g>
      </g>
    </g>
  </g>
</svg>
